<svg width="1296" height="126" viewBox="0 0 1296 126" fill="none" xmlns="http://www.w3.org/2000/svg">
<path fill-rule="evenodd" clip-rule="evenodd" d="M0 90.0903L14 93.313C27 96.0753 54 102.06 81 102.06C108 102.06 135 96.0753 162 81.3431C189 66.1505 216 42.2108 243 42.2108C270 42.2108 297 66.1505 324 57.4033C351 48.1957 378 6.76147 405 0.776523C432 -5.20842 459 24.7163 486 45.4334C513 66.1505 540 78.1204 567 66.1505C594 54.1806 621 18.7314 648 15.5087C675 12.7464 702 42.2108 729 54.1807C756 66.1505 783 60.1656 810 60.1656C837 60.1656 864 66.1505 891 60.1656C918 54.1806 945 36.6862 972 21.4936C999 6.76147 1026 -5.20842 1053 3.53881C1080 12.7464 1107 42.2108 1134 54.1807C1161 66.1505 1188 60.1656 1215 48.1957C1242 36.6862 1269 18.7314 1283 9.52375L1296 0.776523V126H1283C1269 126 1242 126 1215 126C1188 126 1161 126 1134 126C1107 126 1080 126 1053 126C1026 126 999 126 972 126C945 126 918 126 891 126C864 126 837 126 810 126C783 126 756 126 729 126C702 126 675 126 648 126C621 126 594 126 567 126C540 126 513 126 486 126C459 126 432 126 405 126C378 126 351 126 324 126C297 126 270 126 243 126C216 126 189 126 162 126C135 126 108 126 81 126C54 126 27 126 14 126H0V90.0903Z" fill="#FF5A60"/>
<path fill-rule="evenodd" clip-rule="evenodd" d="M0 126L10 115.281C20 104.561 39 83.1227 59 61.6841C79 40.6577 98 19.2191 118 19.2191C137 19.2191 157 40.6577 177 50.9648C196 61.6841 216 61.6841 236 72.4034C255 83.1227 275 104.561 295 99.2017C314 93.842 334 61.6841 353 56.3244C373 50.9648 393 72.4034 412 72.4034C432 72.4034 452 50.9648 471 32.4121C491 13.8594 511 -2.21957 530 3.14009C550 8.49975 569 35.2981 589 48.4911C609 61.6841 628 61.6841 648 53.8507C668 46.0174 687 29.9384 707 29.9384C727 29.9384 746 46.0174 766 59.2104C785 72.4034 805 83.1227 825 83.1227C844 83.1227 864 72.4034 884 61.6841C903 50.9648 923 40.6577 943 27.0524C962 13.8594 982 -2.21957 1001 0.254119C1021 3.14009 1041 24.5787 1060 27.0524C1080 29.9384 1100 13.8594 1119 13.8594C1139 13.8594 1159 29.9384 1178 46.0174C1198 61.6841 1217 77.7631 1237 75.2894C1257 72.4034 1276 50.9648 1286 40.6577L1296 29.9384V126H1286C1276 126 1257 126 1237 126C1217 126 1198 126 1178 126C1159 126 1139 126 1119 126C1100 126 1080 126 1060 126C1041 126 1021 126 1001 126C982 126 962 126 943 126C923 126 903 126 884 126C864 126 844 126 825 126C805 126 785 126 766 126C746 126 727 126 707 126C687 126 668 126 648 126C628 126 609 126 589 126C569 126 550 126 530 126C511 126 491 126 471 126C452 126 432 126 412 126C393 126 373 126 353 126C334 126 314 126 295 126C275 126 255 126 236 126C216 126 196 126 177 126C157 126 137 126 118 126C98 126 79 126 59 126C39 126 20 126 10 126H0Z" fill="#FF5A60" fill-opacity="0.5"/>
<path fill-rule="evenodd" clip-rule="evenodd" d="M0 62.7296L31 73.5451C62 83.8197 123 104.91 185 101.665C247 97.8798 309 69.7597 370 45.4249C432 21.0901 494 0 555 10.2747C617 21.0901 679 62.7296 741 69.7597C802 76.7897 864 48.6695 926 31.3648C987 14.0601 1049 7.03004 1111 3.24464C1173 0 1234 0 1265 0H1296V126H1265C1234 126 1173 126 1111 126C1049 126 987 126 926 126C864 126 802 126 741 126C679 126 617 126 555 126C494 126 432 126 370 126C309 126 247 126 185 126C123 126 62 126 31 126H0V62.7296Z" fill="#FF5A60" fill-opacity="0.2"/>
</svg>
