<svg width="44" height="44" viewBox="0 0 44 44" fill="none" xmlns="http://www.w3.org/2000/svg">
<path d="M30.75 12.375C30.75 11.2147 30.2891 10.1019 29.4686 9.28141C28.6481 8.46094 27.5353 8 26.375 8C25.2147 8 24.1019 8.46094 23.2814 9.28141C22.4609 10.1019 22 11.2147 22 12.375C22 11.2147 21.5391 10.1019 20.7186 9.28141C19.8981 8.46094 18.7853 8 17.625 8C16.4647 8 15.3519 8.46094 14.5314 9.28141C13.7109 10.1019 13.25 11.2147 13.25 12.375V12.3855C13.25 12.508 13.25 12.858 13.3165 13.25H9.75C9.28587 13.25 8.84075 13.4344 8.51256 13.7626C8.18437 14.0908 8 14.5359 8 15V16.75C8 17.2141 8.18437 17.6592 8.51256 17.9874C8.84075 18.3156 9.28587 18.5 9.75 18.5H34.25C34.7141 18.5 35.1592 18.3156 35.4874 17.9874C35.8156 17.6592 36 17.2141 36 16.75V15C36 14.5359 35.8156 14.0908 35.4874 13.7626C35.1592 13.4344 34.7141 13.25 34.25 13.25H30.6835C30.7297 12.9642 30.752 12.675 30.75 12.3855V12.375ZM28.881 13.25H23.75V12.375C23.75 12.0303 23.8179 11.6889 23.9498 11.3705C24.0817 11.052 24.2751 10.7626 24.5188 10.5188C24.7626 10.2751 25.052 10.0817 25.3705 9.94982C25.6889 9.8179 26.0303 9.75 26.375 9.75C26.7197 9.75 27.0611 9.8179 27.3795 9.94982C27.698 10.0817 27.9874 10.2751 28.2312 10.5188C28.4749 10.7626 28.6683 11.052 28.8002 11.3705C28.9321 11.6889 29 12.0303 29 12.375C29 12.5238 28.9965 12.8545 28.9212 13.1275C28.9107 13.1692 28.8973 13.2102 28.881 13.25V13.25ZM20.25 13.25H15.119C15.1029 13.2101 15.0895 13.1692 15.0788 13.1275C15.0035 12.8545 15 12.5238 15 12.375C15 11.6788 15.2766 11.0111 15.7688 10.5188C16.2611 10.0266 16.9288 9.75 17.625 9.75C18.3212 9.75 18.9889 10.0266 19.4812 10.5188C19.9734 11.0111 20.25 11.6788 20.25 12.375V13.25ZM9.75 20.25V33.375C9.75 34.0712 10.0266 34.7389 10.5188 35.2312C11.0111 35.7234 11.6788 36 12.375 36H20.25V20.25H9.75ZM31.625 36C32.3212 36 32.9889 35.7234 33.4812 35.2312C33.9734 34.7389 34.25 34.0712 34.25 33.375V20.25H23.75V36H31.625Z" fill="#FF5A60"/>
<circle cx="22" cy="22" r="21.5" stroke="#FF5A60"/>
</svg>
