<svg width="1294" height="345" viewBox="0 0 1294 345" fill="none" xmlns="http://www.w3.org/2000/svg">
<rect x="1294" y="227" width="1294" height="227" transform="rotate(-180 1294 227)" fill="#FF5A60"/>
<path fill-rule="evenodd" clip-rule="evenodd" d="M1294 250.484L1280.02 247.103C1267.04 244.205 1240.08 237.926 1213.13 237.926C1186.17 237.926 1159.21 244.205 1132.25 259.661C1105.29 275.6 1078.33 300.715 1051.38 300.715C1024.42 300.715 997.458 275.6 970.5 284.777C943.542 294.437 916.583 337.906 889.625 344.185C862.667 350.464 835.708 319.069 808.75 297.335C781.792 275.6 754.833 263.042 727.875 275.6C700.917 288.158 673.958 325.348 647 328.729C620.042 331.627 593.083 300.715 566.125 288.158C539.167 275.6 512.208 281.879 485.25 281.879C458.292 281.879 431.333 275.6 404.375 281.879C377.417 288.158 350.458 306.511 323.5 322.45C296.542 337.906 269.583 350.464 242.625 341.287C215.667 331.627 188.708 300.715 161.75 288.158C134.792 275.6 107.833 281.879 80.875 294.437C53.9167 306.511 26.9584 325.348 12.98 335.008L1.81198e-05 344.185V212.81H12.98C26.9584 212.81 53.9167 212.81 80.875 212.81C107.833 212.81 134.792 212.81 161.75 212.81C188.708 212.81 215.667 212.81 242.625 212.81C269.583 212.81 296.542 212.81 323.5 212.81C350.458 212.81 377.417 212.81 404.375 212.81C431.333 212.81 458.292 212.81 485.25 212.81C512.208 212.81 539.167 212.81 566.125 212.81C593.083 212.81 620.042 212.81 647 212.81C673.958 212.81 700.917 212.81 727.875 212.81C754.833 212.81 781.792 212.81 808.75 212.81C835.708 212.81 862.667 212.81 889.625 212.81C916.583 212.81 943.542 212.81 970.5 212.81C997.458 212.81 1024.42 212.81 1051.38 212.81C1078.33 212.81 1105.29 212.81 1132.25 212.81C1159.21 212.81 1186.17 212.81 1213.13 212.81C1240.08 212.81 1267.04 212.81 1280.02 212.81H1294V250.484Z" fill="#FF5A60"/>
<path fill-rule="evenodd" clip-rule="evenodd" d="M1294 212.81L1284.02 224.056C1274.03 235.302 1255.06 257.794 1235.09 280.285C1215.12 302.345 1196.15 324.837 1176.18 324.837C1157.21 324.837 1137.24 302.345 1117.27 291.531C1098.3 280.285 1078.33 280.285 1058.36 269.04C1039.39 257.794 1019.42 235.302 999.455 240.925C980.485 246.548 960.515 280.285 941.545 285.908C921.576 291.531 901.606 269.04 882.636 269.04C862.667 269.04 842.698 291.531 823.727 310.996C803.758 330.46 783.789 347.329 764.818 341.706C744.849 336.083 725.878 307.968 705.909 294.127C685.94 280.285 666.969 280.285 647 288.504C627.031 296.722 608.06 313.591 588.091 313.591C568.122 313.591 549.151 296.722 529.182 282.881C510.211 269.04 490.242 257.794 470.273 257.794C451.302 257.794 431.333 269.04 411.364 280.285C392.394 291.531 372.424 302.345 352.455 316.619C333.485 330.46 313.515 347.329 294.545 344.733C274.576 341.706 254.606 319.214 235.636 316.619C215.667 313.591 195.698 330.46 176.727 330.46C156.758 330.46 136.789 313.591 117.818 296.722C97.8488 280.285 78.8781 263.417 58.909 266.012C38.9398 269.04 19.9692 291.531 9.98459 302.345L1.81198e-05 313.591V212.81H9.98459C19.9692 212.81 38.9398 212.81 58.909 212.81C78.8781 212.81 97.8488 212.81 117.818 212.81C136.789 212.81 156.758 212.81 176.727 212.81C195.698 212.81 215.667 212.81 235.636 212.81C254.606 212.81 274.576 212.81 294.545 212.81C313.515 212.81 333.485 212.81 352.455 212.81C372.424 212.81 392.394 212.81 411.364 212.81C431.333 212.81 451.302 212.81 470.273 212.81C490.242 212.81 510.211 212.81 529.182 212.81C549.151 212.81 568.122 212.81 588.091 212.81C608.06 212.81 627.031 212.81 647 212.81C666.969 212.81 685.94 212.81 705.909 212.81C725.878 212.81 744.849 212.81 764.818 212.81C783.789 212.81 803.758 212.81 823.727 212.81C842.698 212.81 862.667 212.81 882.636 212.81C901.606 212.81 921.576 212.81 941.545 212.81C960.515 212.81 980.485 212.81 999.455 212.81C1019.42 212.81 1039.39 212.81 1058.36 212.81C1078.33 212.81 1098.3 212.81 1117.27 212.81C1137.24 212.81 1157.21 212.81 1176.18 212.81C1196.15 212.81 1215.12 212.81 1235.09 212.81C1255.06 212.81 1274.03 212.81 1284.02 212.81H1294Z" fill="#FF5A60" fill-opacity="0.5"/>
<path fill-rule="evenodd" clip-rule="evenodd" d="M1294 279.189L1263.05 267.842C1232.1 257.062 1171.19 234.936 1109.29 238.34C1047.38 242.312 985.477 271.813 924.571 297.343C862.667 322.874 800.762 345 739.856 334.221C677.952 322.874 616.048 279.189 554.144 271.813C493.238 264.438 431.333 293.939 369.429 312.094C308.523 330.249 246.619 337.625 184.715 341.596C122.81 345 61.9043 345 30.9522 345H1.81198e-05V212.81L30.9522 212.81C61.9043 212.81 122.81 212.81 184.715 212.81C246.619 212.81 308.523 212.81 369.429 212.81C431.333 212.81 493.238 212.81 554.144 212.81C616.048 212.81 677.952 212.81 739.856 212.81C800.762 212.81 862.667 212.81 924.571 212.81C985.477 212.81 1047.38 212.81 1109.29 212.81C1171.19 212.81 1232.1 212.81 1263.05 212.81H1294V279.189Z" fill="#FF5A60" fill-opacity="0.2"/>
</svg>
